<svg width="66" height="66" viewBox="0 0 66 66" fill="none" xmlns="http://www.w3.org/2000/svg">
<rect width="66" height="66" rx="20" fill="#DAECFF"/>
<path d="M45.65 22C45.2833 20.9 44.1833 20.1667 43.0833 20.1667H22.9167C21.6333 20.1667 20.7167 20.9 20.35 22L16.5 33V47.6667C16.5 48.5833 17.4167 49.5 18.3333 49.5H20.1667C21.2667 49.5 22 48.5833 22 47.6667V45.8333H44V47.6667C44 48.5833 44.9167 49.5 45.8333 49.5H47.6667C48.5833 49.5 49.5 48.5833 49.5 47.6667V33L45.65 22ZM23.4667 23.8333H42.35L44.3667 29.3333H21.6333L23.4667 23.8333ZM45.8333 42.1667H20.1667V33H45.8333V42.1667ZM24.75 34.8333C26.2167 34.8333 27.5 36.1167 27.5 37.5833C27.5 39.05 26.2167 40.3333 24.75 40.3333C23.2833 40.3333 22 39.05 22 37.5833C22 36.1167 23.2833 34.8333 24.75 34.8333ZM41.25 34.8333C42.7167 34.8333 44 36.1167 44 37.5833C44 39.05 42.7167 40.3333 41.25 40.3333C39.7833 40.3333 38.5 39.05 38.5 37.5833C38.5 36.1167 39.7833 34.8333 41.25 34.8333Z" fill="#449EFF"/>
</svg>
