<svg width="66" height="66" viewBox="0 0 66 66" fill="none" xmlns="http://www.w3.org/2000/svg">
<rect width="66" height="66" rx="20" fill="#D9F7E8"/>
<path d="M50.5 20.5V18H46.75V15.5H44.25V18H43C41.6213 18 40.5 19.1225 40.5 20.5V23C40.5 24.3787 41.6213 25.5 43 25.5H48V28H40.5V30.5H44.25V33H46.75V30.5H48C49.3787 30.5 50.5 29.3787 50.5 28V25.5C50.5 24.1225 49.3787 23 48 23H43V20.5H50.5ZM43 38V40.5H46.2325L41.75 44.9825L38.885 42.1162C38.6509 41.8821 38.3336 41.7504 38.0025 41.75H38C37.6689 41.7504 37.3516 41.8821 37.1175 42.1162L30.5 48.7325L32.2675 50.5L38.0012 44.7675L40.8662 47.6338C41.1007 47.8681 41.4185 47.9997 41.75 47.9997C42.0815 47.9997 42.3993 47.8681 42.6338 47.6338L48 42.2675V45.5H50.5V38H43ZM18 50.5H15.5V44.25C15.5 39.425 19.425 35.5 24.25 35.5H31.75C34.2362 35.5 36.6125 36.5625 38.2712 38.4163L36.4087 40.0837C35.8225 39.4282 35.1045 38.9038 34.3018 38.5447C33.499 38.1856 32.6294 38 31.75 38H24.25C20.8038 38 18 40.8037 18 44.25V50.5ZM28 33C30.3206 33 32.5462 32.0781 34.1872 30.4372C35.8281 28.7962 36.75 26.5706 36.75 24.25C36.75 21.9294 35.8281 19.7038 34.1872 18.0628C32.5462 16.4219 30.3206 15.5 28 15.5C25.6794 15.5 23.4538 16.4219 21.8128 18.0628C20.1719 19.7038 19.25 21.9294 19.25 24.25C19.25 26.5706 20.1719 28.7962 21.8128 30.4372C23.4538 32.0781 25.6794 33 28 33ZM28 18C29.6576 18 31.2473 18.6585 32.4194 19.8306C33.5915 21.0027 34.25 22.5924 34.25 24.25C34.25 25.9076 33.5915 27.4973 32.4194 28.6694C31.2473 29.8415 29.6576 30.5 28 30.5C26.3424 30.5 24.7527 29.8415 23.5806 28.6694C22.4085 27.4973 21.75 25.9076 21.75 24.25C21.75 22.5924 22.4085 21.0027 23.5806 19.8306C24.7527 18.6585 26.3424 18 28 18Z" fill="#4AD991"/>
</svg>
