<svg width="66" height="66" viewBox="0 0 66 66" fill="none" xmlns="http://www.w3.org/2000/svg">
<rect width="66" height="66" rx="20" fill="#FCA1A1"/>
<path d="M40.5002 28H43.8335C44.5279 28 45.1185 27.7572 45.6052 27.2717C46.0918 26.7861 46.3346 26.1956 46.3335 25.5V23.8333C46.3335 23.1389 46.0907 22.5489 45.6052 22.0633C45.1196 21.5778 44.5291 21.3345 43.8335 21.3333H39.6668C39.1946 21.3333 38.7991 21.4933 38.4802 21.8133C38.1613 22.1333 38.0013 22.5289 38.0002 23V30.0833C38.0002 30.4445 38.1185 30.7433 38.3552 30.98C38.5918 31.2167 38.8902 31.3345 39.2502 31.3333C39.6102 31.3322 39.9091 31.2139 40.1468 30.9783C40.3846 30.7428 40.5024 30.4445 40.5002 30.0833V28ZM40.5002 25.5V23.8333H43.8335V25.5H40.5002ZM34.6668 36.3333C33.7502 36.3333 32.9657 36.0072 32.3135 35.355C31.6613 34.7028 31.3346 33.9178 31.3335 33V19.6667C31.3335 18.75 31.6602 17.9656 32.3135 17.3133C32.9668 16.6611 33.7513 16.3345 34.6668 16.3333H48.0002C48.9168 16.3333 49.7018 16.66 50.3552 17.3133C51.0085 17.9667 51.3346 18.7511 51.3335 19.6667V33C51.3335 33.9167 51.0074 34.7017 50.3552 35.355C49.7029 36.0083 48.9179 36.3345 48.0002 36.3333H43.0002V46.3333C43.0002 46.8056 42.8402 47.2017 42.5202 47.5217C42.2002 47.8417 41.8046 48.0011 41.3335 48C40.8624 47.9989 40.4668 47.8389 40.1468 47.52C39.8268 47.2011 39.6668 46.8056 39.6668 46.3333V36.3333H34.6668ZM34.6668 33H48.0002V19.6667H34.6668V33ZM26.3335 48C25.8613 48 25.4657 47.84 25.1468 47.52C24.8279 47.2 24.6679 46.8045 24.6668 46.3333V44.6667H18.0002C17.5279 44.6667 17.1324 44.5067 16.8135 44.1867C16.4946 43.8667 16.3346 43.4711 16.3335 43C16.3324 42.5289 16.4924 42.1333 16.8135 41.8133C17.1346 41.4933 17.5302 41.3333 18.0002 41.3333H26.3335V33H18.0002C17.5279 33 17.1324 32.84 16.8135 32.52C16.4946 32.2 16.3346 31.8045 16.3335 31.3333C16.3324 30.8622 16.4924 30.4667 16.8135 30.1467C17.1346 29.8267 17.5302 29.6667 18.0002 29.6667H25.0002L23.2502 24.6667H18.0002C17.5279 24.6667 17.1324 24.5067 16.8135 24.1867C16.4946 23.8667 16.3346 23.4711 16.3335 23C16.3324 22.5289 16.4924 22.1333 16.8135 21.8133C17.1346 21.4933 17.5302 21.3333 18.0002 21.3333H23.8335C24.3613 21.3333 24.8407 21.4861 25.2718 21.7917C25.7029 22.0972 26.0013 22.5 26.1668 23L29.5002 32.4583C29.5557 32.625 29.5974 32.8056 29.6252 33C29.6529 33.1945 29.6668 33.3889 29.6668 33.5833V46.3333C29.6668 46.8056 29.5068 47.2017 29.1868 47.5217C28.8668 47.8417 28.4713 48.0011 28.0002 48H26.3335ZM22.1668 39.6667C22.8613 39.6667 23.4518 39.4239 23.9385 38.9383C24.4252 38.4528 24.6679 37.8622 24.6668 37.1667C24.6657 36.4711 24.4229 35.8811 23.9385 35.3967C23.4541 34.9122 22.8635 34.6689 22.1668 34.6667C21.4702 34.6645 20.8802 34.9078 20.3968 35.3967C19.9135 35.8856 19.6702 36.4756 19.6668 37.1667C19.6635 37.8578 19.9068 38.4483 20.3968 38.9383C20.8868 39.4283 21.4768 39.6711 22.1668 39.6667Z" fill="#FF4F4F"/>
</svg>
