<svg width="66" height="66" viewBox="0 0 66 66" fill="none" xmlns="http://www.w3.org/2000/svg">
<rect width="66" height="66" rx="20" fill="#FFF7B6"/>
<path d="M40 26.875C40 36.8687 25 36.8687 25 26.875H28.75C28.75 31.8813 36.25 31.8813 36.25 26.875M47.5 43.75V49.375H17.5V43.75C17.5 38.7437 27.4937 36.25 32.5 36.25C37.5062 36.25 47.5 38.7437 47.5 43.75ZM43.9375 43.75C43.9375 42.55 38.0687 39.8125 32.5 39.8125C26.9312 39.8125 21.0625 42.55 21.0625 43.75V45.8125H43.9375M33.4375 13.75C33.9625 13.75 34.375 14.1625 34.375 14.6875V20.3125H36.25V15.625C37.577 16.2391 38.6887 17.2379 39.441 18.4917C40.1933 19.7455 40.5513 21.1964 40.4687 22.6562C40.4687 22.6562 41.7812 22.9187 41.875 25H23.125C23.125 22.9187 24.5312 22.6562 24.5312 22.6562C24.4487 21.1964 24.8067 19.7455 25.559 18.4917C26.3113 17.2379 27.423 16.2391 28.75 15.625V20.3125H30.625V14.6875C30.625 14.1625 31.0375 13.75 31.5625 13.75" fill="#FFE734"/>
</svg>
